<svg xmlns="http://www.w3.org/2000/svg" xmlns:xlink="http://www.w3.org/1999/xlink" width="1920" zoomAndPan="magnify" viewBox="0 0 1440 809.999993" height="1080" preserveAspectRatio="xMidYMid meet" version="1.0"><defs><g/><clipPath id="cf7fcb66c9"><path d="M 750.890625 374.828125 L 769.917969 374.828125 L 769.917969 390.835938 L 750.890625 390.835938 Z M 750.890625 374.828125 " clip-rule="nonzero"/></clipPath><clipPath id="e21e8624b3"><path d="M 750.976562 383.066406 C 751.539062 377.539062 752.476562 376.320312 753.414062 375.664062 C 754.257812 375.101562 755.472656 375.007812 756.503906 374.914062 C 757.628906 374.820312 758.660156 374.914062 759.691406 375.101562 C 760.8125 375.195312 762.5 375.570312 763.0625 375.757812 C 763.25 375.851562 763.25 375.945312 763.4375 376.039062 C 763.90625 376.226562 765.40625 376.039062 766.246094 376.414062 C 767.277344 376.882812 768.402344 377.445312 769.058594 378.476562 C 769.808594 379.597656 769.902344 381.753906 769.902344 383.253906 C 769.902344 384.65625 769.714844 385.875 769.246094 387 C 768.683594 388.125 767.746094 389.339844 766.714844 389.996094 C 765.871094 390.464844 764.75 390.558594 763.71875 390.746094 C 762.59375 390.839844 761.375 390.746094 760.253906 390.652344 C 759.128906 390.558594 758.097656 390.277344 757.066406 389.996094 C 756.128906 389.714844 755.007812 389.527344 754.257812 388.964844 C 753.414062 388.3125 752.664062 387.46875 752.101562 386.53125 C 751.539062 385.5 750.976562 383.066406 750.976562 383.066406 " clip-rule="nonzero"/></clipPath><clipPath id="53c41da297"><path d="M 752 382 L 761 382 L 761 392 L 752 392 Z M 752 382 " clip-rule="nonzero"/></clipPath><clipPath id="e9083ad53f"><path d="M 751.945312 380.875 L 761.6875 380.507812 L 762.085938 391 L 752.34375 391.367188 Z M 751.945312 380.875 " clip-rule="nonzero"/></clipPath><clipPath id="5ba61767bb"><path d="M 751.945312 380.875 L 761.6875 380.507812 L 762.085938 391 L 752.34375 391.367188 Z M 751.945312 380.875 " clip-rule="nonzero"/></clipPath><clipPath id="098d0917cc"><path d="M 752.027344 383.03125 L 760.15625 382.722656 L 760.472656 391.058594 L 752.34375 391.367188 Z M 752.027344 383.03125 " clip-rule="nonzero"/></clipPath><clipPath id="af838e972f"><path d="M 761 388 L 762 388 L 762 389 L 761 389 Z M 761 388 " clip-rule="nonzero"/></clipPath><clipPath id="b65b55d446"><path d="M 751.945312 380.875 L 761.6875 380.507812 L 762.085938 391 L 752.34375 391.367188 Z M 751.945312 380.875 " clip-rule="nonzero"/></clipPath><clipPath id="f19da92e9d"><path d="M 751.945312 380.875 L 761.6875 380.507812 L 762.085938 391 L 752.34375 391.367188 Z M 751.945312 380.875 " clip-rule="nonzero"/></clipPath><clipPath id="d3d70b339e"><path d="M 761.503906 388.214844 L 761.554688 388.210938 L 761.5625 388.421875 L 761.511719 388.421875 Z M 761.503906 388.214844 " clip-rule="nonzero"/></clipPath><clipPath id="8e6ff00b75"><path d="M 761.550781 388.226562 C 761.542969 388.289062 761.53125 388.351562 761.519531 388.414062 C 761.539062 388.351562 761.546875 388.289062 761.550781 388.226562 Z M 761.550781 388.226562 " clip-rule="nonzero"/></clipPath><clipPath id="eb2a118a35"><path d="M 761.503906 388.214844 L 761.554688 388.210938 L 761.5625 388.421875 L 761.511719 388.421875 Z M 761.503906 388.214844 " clip-rule="nonzero"/></clipPath><clipPath id="cef51c6aff"><path d="M 761.550781 388.226562 C 761.542969 388.289062 761.53125 388.351562 761.519531 388.414062 C 761.539062 388.351562 761.546875 388.289062 761.550781 388.226562 " clip-rule="nonzero"/></clipPath><clipPath id="0f41b08fec"><path d="M 761.449219 388.257812 L 761.527344 388.429688 L 761.625 388.382812 L 761.546875 388.210938 Z M 761.449219 388.257812 " clip-rule="nonzero"/></clipPath><clipPath id="4d1c30e2f5"><path d="M 754 380 L 762 380 L 762 392 L 754 392 Z M 754 380 " clip-rule="nonzero"/></clipPath><clipPath id="fd293f6717"><path d="M 751.945312 380.875 L 761.6875 380.507812 L 762.085938 391 L 752.34375 391.367188 Z M 751.945312 380.875 " clip-rule="nonzero"/></clipPath><clipPath id="54695a55ed"><path d="M 751.945312 380.875 L 761.6875 380.507812 L 762.085938 391 L 752.34375 391.367188 Z M 751.945312 380.875 " clip-rule="nonzero"/></clipPath><clipPath id="2debe19356"><path d="M 754.714844 380.769531 L 761.6875 380.507812 L 762.085938 391 L 755.113281 391.261719 Z M 754.714844 380.769531 " clip-rule="nonzero"/></clipPath></defs><g fill="#000000" fill-opacity="1"><g transform="translate(615.39068, 421.672235)"><g><path d="M 4.859375 -3.25 C 2.398438 -5.925781 1.171875 -9.207031 1.171875 -13.09375 C 1.171875 -16.988281 2.398438 -20.285156 4.859375 -22.984375 C 7.316406 -25.679688 10.441406 -27.03125 14.234375 -27.03125 C 17.710938 -27.03125 20.582031 -25.941406 22.84375 -23.765625 L 22.84375 -26.265625 L 31.90625 -26.265625 L 31.90625 0 L 22.9375 0 L 22.9375 -2.96875 L 22.84375 -2.96875 C 20.582031 -0.476562 17.710938 0.765625 14.234375 0.765625 C 10.441406 0.765625 7.316406 -0.570312 4.859375 -3.25 Z M 12.5625 -17.5625 C 11.382812 -16.40625 10.796875 -14.921875 10.796875 -13.109375 C 10.796875 -11.296875 11.359375 -9.816406 12.484375 -8.671875 C 13.617188 -7.535156 15.109375 -6.96875 16.953125 -6.96875 C 18.722656 -6.96875 20.179688 -7.546875 21.328125 -8.703125 C 22.472656 -9.867188 23.046875 -11.335938 23.046875 -13.109375 C 23.046875 -14.921875 22.457031 -16.40625 21.28125 -17.5625 C 20.101562 -18.71875 18.660156 -19.296875 16.953125 -19.296875 C 15.210938 -19.296875 13.75 -18.71875 12.5625 -17.5625 Z M 12.5625 -17.5625 "/></g></g></g><g fill="#000000" fill-opacity="1"><g transform="translate(645.545637, 421.672235)"><g><path d="M 33.078125 -26.265625 L 20.578125 -13.71875 L 34.3125 0 L 22.625 0 L 12.140625 -10.5 L 12.140625 0 L 3.078125 0 L 3.078125 -44.03125 L 12.140625 -44.03125 L 12.140625 -17.109375 L 21.296875 -26.265625 Z M 33.078125 -26.265625 "/></g></g></g><g fill="#000000" fill-opacity="1"><g transform="translate(673.80622, 421.672235)"><g><path d="M 3.078125 0 L 3.078125 -26.265625 L 12.140625 -26.265625 L 12.140625 -22.484375 L 12.234375 -22.484375 C 12.304688 -22.617188 12.414062 -22.785156 12.5625 -22.984375 C 12.71875 -23.191406 13.050781 -23.550781 13.5625 -24.0625 C 14.082031 -24.570312 14.628906 -25.03125 15.203125 -25.4375 C 15.785156 -25.851562 16.535156 -26.222656 17.453125 -26.546875 C 18.378906 -26.867188 19.320312 -27.03125 20.28125 -27.03125 C 21.269531 -27.03125 22.238281 -26.894531 23.1875 -26.625 C 24.144531 -26.351562 24.847656 -26.082031 25.296875 -25.8125 L 26.015625 -25.390625 L 22.21875 -17.71875 C 21.09375 -18.675781 19.523438 -19.15625 17.515625 -19.15625 C 16.421875 -19.15625 15.476562 -18.914062 14.6875 -18.4375 C 13.90625 -17.957031 13.351562 -17.375 13.03125 -16.6875 C 12.707031 -16.007812 12.476562 -15.429688 12.34375 -14.953125 C 12.207031 -14.472656 12.140625 -14.097656 12.140625 -13.828125 L 12.140625 0 Z M 3.078125 0 "/></g></g></g><g fill="#000000" fill-opacity="1"><g transform="translate(694.489315, 421.672235)"><g><path d="M 29.640625 -11.875 L 10.59375 -11.875 C 10.59375 -10.03125 11.191406 -8.664062 12.390625 -7.78125 C 13.585938 -6.894531 14.882812 -6.453125 16.28125 -6.453125 C 17.75 -6.453125 18.910156 -6.644531 19.765625 -7.03125 C 20.617188 -7.425781 21.59375 -8.207031 22.6875 -9.375 L 29.234375 -6.09375 C 26.503906 -1.519531 21.960938 0.765625 15.609375 0.765625 C 11.648438 0.765625 8.253906 -0.585938 5.421875 -3.296875 C 2.585938 -6.015625 1.171875 -9.285156 1.171875 -13.109375 C 1.171875 -16.929688 2.585938 -20.207031 5.421875 -22.9375 C 8.253906 -25.664062 11.648438 -27.03125 15.609375 -27.03125 C 19.773438 -27.03125 23.164062 -25.828125 25.78125 -23.421875 C 28.394531 -21.015625 29.703125 -17.578125 29.703125 -13.109375 C 29.703125 -12.492188 29.679688 -12.082031 29.640625 -11.875 Z M 10.859375 -16.890625 L 20.84375 -16.890625 C 20.632812 -18.253906 20.09375 -19.300781 19.21875 -20.03125 C 18.351562 -20.769531 17.238281 -21.140625 15.875 -21.140625 C 14.375 -21.140625 13.175781 -20.75 12.28125 -19.96875 C 11.394531 -19.1875 10.921875 -18.160156 10.859375 -16.890625 Z M 10.859375 -16.890625 "/></g></g></g><g fill="#000000" fill-opacity="1"><g transform="translate(720.548329, 421.672235)"><g><path d="M 3.078125 0 L 3.078125 -26.265625 L 12.140625 -26.265625 L 12.140625 -23.5 L 12.234375 -23.5 C 14.585938 -25.851562 17.097656 -27.03125 19.765625 -27.03125 C 21.054688 -27.03125 22.34375 -26.859375 23.625 -26.515625 C 24.90625 -26.179688 26.132812 -25.65625 27.3125 -24.9375 C 28.488281 -24.21875 29.441406 -23.203125 30.171875 -21.890625 C 30.910156 -20.578125 31.28125 -19.050781 31.28125 -17.3125 L 31.28125 0 L 22.21875 0 L 22.21875 -14.84375 C 22.21875 -16.207031 21.78125 -17.398438 20.90625 -18.421875 C 20.039062 -19.453125 18.910156 -19.96875 17.515625 -19.96875 C 16.148438 -19.96875 14.910156 -19.4375 13.796875 -18.375 C 12.691406 -17.320312 12.140625 -16.144531 12.140625 -14.84375 L 12.140625 0 Z M 3.078125 0 "/></g></g></g><g fill="#000000" fill-opacity="1"><g transform="translate(749.576907, 421.672235)"><g><path d="M 3.9375 -40.90625 C 5 -41.96875 6.265625 -42.5 7.734375 -42.5 C 9.203125 -42.5 10.460938 -41.96875 11.515625 -40.90625 C 12.578125 -39.851562 13.109375 -38.59375 13.109375 -37.125 C 13.109375 -35.65625 12.578125 -34.390625 11.515625 -33.328125 C 10.460938 -32.273438 9.203125 -31.75 7.734375 -31.75 C 6.265625 -31.75 5 -32.273438 3.9375 -33.328125 C 2.882812 -34.390625 2.359375 -35.65625 2.359375 -37.125 C 2.359375 -38.59375 2.882812 -39.851562 3.9375 -40.90625 Z M 3.078125 -26.265625 L 3.078125 0 L 12.140625 0 L 12.140625 -26.265625 Z M 3.078125 -26.265625 "/></g></g></g><g fill="#000000" fill-opacity="1"><g transform="translate(760.224947, 421.672235)"><g><path d="M 3.078125 0 L 3.078125 -26.265625 L 12.140625 -26.265625 L 12.140625 -23.5 L 12.234375 -23.5 C 14.585938 -25.851562 17.097656 -27.03125 19.765625 -27.03125 C 21.671875 -27.03125 23.460938 -26.640625 25.140625 -25.859375 C 26.816406 -25.078125 28.082031 -23.863281 28.9375 -22.21875 C 31.59375 -25.425781 34.492188 -27.03125 37.640625 -27.03125 C 40.429688 -27.03125 42.832031 -26.242188 44.84375 -24.671875 C 46.863281 -23.109375 47.875 -20.65625 47.875 -17.3125 L 47.875 0 L 38.8125 0 L 38.8125 -14.84375 C 38.8125 -16.25 38.425781 -17.421875 37.65625 -18.359375 C 36.882812 -19.296875 35.734375 -19.765625 34.203125 -19.765625 C 32.867188 -19.765625 31.851562 -19.363281 31.15625 -18.5625 C 30.457031 -17.757812 30.070312 -16.796875 30 -15.671875 L 30 0 L 20.9375 0 L 20.9375 -14.84375 C 20.9375 -16.25 20.550781 -17.421875 19.78125 -18.359375 C 19.019531 -19.296875 17.867188 -19.765625 16.328125 -19.765625 C 14.929688 -19.765625 13.882812 -19.328125 13.1875 -18.453125 C 12.488281 -17.585938 12.140625 -16.554688 12.140625 -15.359375 L 12.140625 0 Z M 3.078125 0 "/></g></g></g><g fill="#000000" fill-opacity="1"><g transform="translate(805.842079, 421.672235)"><g><path d="M 8.90625 -10.953125 C 10.539062 -10.953125 11.929688 -10.378906 13.078125 -9.234375 C 14.222656 -8.097656 14.796875 -6.707031 14.796875 -5.0625 C 14.796875 -3.457031 14.222656 -2.082031 13.078125 -0.9375 C 11.929688 0.195312 10.539062 0.765625 8.90625 0.765625 C 7.300781 0.765625 5.925781 0.195312 4.78125 -0.9375 C 3.644531 -2.082031 3.078125 -3.457031 3.078125 -5.0625 C 3.078125 -6.707031 3.644531 -8.097656 4.78125 -9.234375 C 5.925781 -10.378906 7.300781 -10.953125 8.90625 -10.953125 Z M 8.90625 -10.953125 "/></g></g></g><g clip-path="url(#cf7fcb66c9)"><g clip-path="url(#e21e8624b3)"><path fill="#ffffff" d="M 747.230469 371.167969 L 773.761719 371.167969 L 773.761719 394.585938 L 747.230469 394.585938 Z M 747.230469 371.167969 " fill-opacity="1" fill-rule="nonzero"/></g></g><g clip-path="url(#53c41da297)"><g clip-path="url(#e9083ad53f)"><g clip-path="url(#5ba61767bb)"><g clip-path="url(#098d0917cc)"><path fill="#748664" d="M 755.191406 383.660156 C 755.171875 383.671875 755.152344 383.679688 755.128906 383.683594 C 754.839844 383.746094 754.660156 383.09375 753.867188 382.984375 C 753.449219 382.925781 753.019531 383.160156 752.761719 383.496094 C 752.570312 383.742188 752.472656 384.050781 752.378906 384.351562 C 752.230469 384.835938 752.082031 385.339844 752.140625 385.839844 C 752.203125 386.351562 752.480469 386.816406 752.816406 387.207031 C 752.597656 386.230469 753.242188 385.140625 754.203125 384.867188 C 754.351562 384.824219 754.5625 384.832031 754.601562 384.984375 C 754.636719 385.125 754.472656 385.230469 754.34375 385.304688 C 753.613281 385.710938 753.242188 386.539062 752.917969 387.3125 C 752.871094 387.421875 752.824219 387.539062 752.828125 387.660156 C 752.835938 387.820312 752.929688 387.960938 753.023438 388.089844 C 753.453125 388.691406 753.824219 388.984375 754.558594 389.359375 C 754.28125 388.769531 754.179688 388.476562 754.292969 387.832031 C 754.40625 387.1875 754.652344 386.574219 754.894531 385.964844 C 754.925781 385.886719 754.992188 385.789062 755.074219 385.816406 C 755.132812 385.839844 755.148438 385.910156 755.152344 385.972656 C 755.195312 386.507812 755.011719 387.027344 754.890625 387.546875 C 754.742188 388.183594 754.683594 388.84375 754.71875 389.496094 C 754.722656 389.578125 754.730469 389.660156 754.769531 389.730469 C 754.855469 389.894531 755.066406 389.925781 755.25 389.964844 C 755.746094 390.070312 756.207031 390.347656 756.535156 390.738281 C 755.796875 389.796875 755.828125 388.480469 755.941406 387.289062 C 755.957031 387.144531 755.972656 386.996094 756.050781 386.875 C 756.128906 386.753906 756.472656 387.101562 756.351562 388.5625 C 756.261719 389.652344 756.925781 390.808594 756.980469 390.847656 C 757.042969 390.894531 757.976562 390.625 758.375 390.539062 C 759.210938 390.355469 760.195312 390.585938 760.460938 391.058594 C 760.460938 391.058594 759.886719 389.355469 758.039062 387.386719 C 757.125 386.417969 755.972656 384.765625 755.191406 383.660156 " fill-opacity="1" fill-rule="nonzero"/></g></g></g></g><g clip-path="url(#af838e972f)"><g clip-path="url(#b65b55d446)"><g clip-path="url(#f19da92e9d)"><g clip-path="url(#d3d70b339e)"><g clip-path="url(#8e6ff00b75)"><g clip-path="url(#eb2a118a35)"><g clip-path="url(#cef51c6aff)"><g clip-path="url(#0f41b08fec)"><path fill="#4894d7" d="M 761.449219 388.257812 L 761.523438 388.425781 L 761.625 388.382812 L 761.546875 388.214844 Z M 761.449219 388.257812 " fill-opacity="1" fill-rule="nonzero"/></g></g></g></g></g></g></g></g><g clip-path="url(#4d1c30e2f5)"><g clip-path="url(#fd293f6717)"><g clip-path="url(#54695a55ed)"><g clip-path="url(#2debe19356)"><path fill="#748664" d="M 761.894531 386.140625 C 761.863281 386.023438 761.75 385.945312 761.644531 385.886719 C 760.613281 385.292969 759.382812 385.050781 758.207031 385.207031 C 757.972656 385.238281 757.636719 385.210938 757.648438 384.957031 C 757.652344 384.820312 757.757812 384.714844 757.890625 384.691406 C 758.582031 384.574219 759.285156 384.46875 759.984375 384.546875 C 760.621094 384.617188 761.253906 384.851562 761.703125 385.308594 C 761.515625 384.710938 761.375 384.128906 761.152344 383.566406 C 760.976562 383.125 760.539062 382.84375 760.066406 382.859375 C 758.3125 382.917969 757.832031 384.039062 756.886719 383.8125 C 756.566406 383.589844 756.335938 383.03125 758.253906 382.597656 C 758.480469 382.546875 760.078125 382.355469 760.5 382.695312 C 759.894531 381.945312 759.097656 381.351562 758.203125 380.992188 C 757.496094 380.707031 756.691406 380.574219 755.976562 380.832031 C 755.261719 381.089844 754.6875 381.824219 754.800781 382.574219 C 754.820312 382.707031 755.480469 383.496094 755.191406 383.660156 C 755.972656 384.765625 757.125 386.417969 758.039062 387.386719 C 759.886719 389.355469 760.460938 391.058594 760.460938 391.058594 C 760.421875 390.882812 761.003906 390.21875 761.160156 389.765625 C 761.25 389.507812 761.34375 389.0625 761.3125 388.71875 C 761.25 388.019531 760.5 387.851562 760.222656 387.75 C 759.761719 387.574219 759.148438 387.503906 758.917969 387.066406 C 758.84375 386.925781 758.816406 386.730469 758.9375 386.625 C 758.988281 386.582031 759.054688 386.566406 759.117188 386.550781 C 759.625 386.453125 760.148438 386.636719 760.601562 386.890625 C 760.878906 387.046875 761.148438 387.242188 761.332031 387.503906 C 761.480469 387.714844 761.570312 387.972656 761.550781 388.226562 C 761.664062 387.597656 761.777344 386.972656 761.886719 386.347656 C 761.898438 386.277344 761.910156 386.207031 761.894531 386.140625 " fill-opacity="1" fill-rule="nonzero"/></g></g></g></g></svg>